<svg width="24" height="22" viewBox="0 0 24 22" fill="none" xmlns="http://www.w3.org/2000/svg">
	<path d="M13.6972 0C14.2174 0 14.6903 0.0648155 15.1274 0.201766C15.5848 0.345087 15.9979 0.566181 16.3709 0.867252C16.7272 1.15494 17.0435 1.51249 17.332 1.9453L17.5978 2.34251L17.7318 2.53153C17.8286 2.6613 17.8937 2.72903 17.9671 2.78975C18.0537 2.86135 18.1403 2.90766 18.2479 2.93999C18.3756 2.9784 18.5057 2.99554 18.8249 2.99922L19.0431 3.00093C20.2355 3.05239 20.9143 3.21632 21.6299 3.59903C22.3909 4.00598 22.994 4.60914 23.401 5.37008C23.8456 6.20148 24 7.00096 24 8.61499V14.5903C24 16.7733 23.7973 17.823 23.214 18.9137C22.685 19.9028 21.9028 20.685 20.9137 21.214C19.823 21.7973 18.7733 22 16.5903 22H7.40971C5.22671 22 4.17697 21.7973 3.08629 21.214C2.0972 20.685 1.31498 19.9028 0.786017 18.9137C0.233412 17.8804 0.0223909 16.8839 0.00170898 14.9257V8.3217C0.0204305 6.9009 0.182174 6.14952 0.599024 5.37008C1.00598 4.60914 1.60914 4.00598 2.37008 3.59903C3.06098 3.22953 3.71673 3.06518 4.82135 3.01599L4.90966 3.00405L5 3L5.17513 2.99922C5.49426 2.99554 5.62436 2.9784 5.75214 2.93999C5.85973 2.90766 5.94627 2.86135 6.03286 2.78975C6.13569 2.70474 6.22212 2.606 6.40221 2.34251L6.66795 1.9453C6.95649 1.51249 7.27275 1.15494 7.62914 0.867252C8.0021 0.566181 8.41522 0.345087 8.87261 0.201766C9.30967 0.0648155 9.7826 0 10.3028 0H13.6972ZM13.6972 2H10.3028C9.97609 2 9.70316 2.03741 9.47063 2.11027C9.25282 2.17852 9.063 2.28011 8.88539 2.42348C8.69578 2.57654 8.51326 2.78288 8.33205 3.0547L8.02832 3.50715C7.75729 3.8987 7.56254 4.1201 7.30723 4.33118C7.01501 4.57277 6.6909 4.74623 6.32778 4.85536C5.98872 4.95726 5.67821 4.99507 5.14124 4.99954L5.08745 5.0058L4.81753 5.0183C4.06506 5.05673 3.70828 5.1514 3.31328 5.36265C2.90088 5.58321 2.5832 5.90088 2.36265 6.31328C2.09415 6.81533 2 7.30289 2 8.61499V14.5903C2 16.4714 2.14248 17.2092 2.54964 17.9705C2.89221 18.6111 3.38894 19.1078 4.02948 19.4504C4.71068 19.8147 5.37304 19.9671 6.85233 19.9951L7.40971 20H16.5903L17.1477 19.9951C18.627 19.9671 19.2893 19.8147 19.9705 19.4504C20.6111 19.1078 21.1078 18.6111 21.4504 17.9705C21.8147 17.2893 21.9671 16.627 21.9951 15.1477L22 14.5903V8.61499L21.9954 8.15997C21.9737 7.18077 21.8723 6.75257 21.6373 6.31328C21.4168 5.90088 21.0991 5.58321 20.6867 5.36265C20.2559 5.13224 19.8671 5.03835 19 5L18.7578 4.99825C18.2817 4.98994 17.9895 4.95071 17.6722 4.85536C17.3091 4.74623 16.985 4.57277 16.6928 4.33118C16.4375 4.1201 16.2427 3.8987 15.9717 3.50715L15.6679 3.0547C15.4867 2.78288 15.3042 2.57654 15.1146 2.42348C14.937 2.28011 14.7472 2.17852 14.5294 2.11027C14.2968 2.03741 14.0239 2 13.6972 2ZM12 6.5C14.8997 6.5 17.25 8.85025 17.25 11.75C17.25 14.6497 14.8997 17 12 17C9.10025 17 6.75 14.6497 6.75 11.75C6.75 8.85025 9.10025 6.5 12 6.5ZM12 8.5C10.2048 8.5 8.75 9.95482 8.75 11.75C8.75 13.5452 10.2048 15 12 15C13.7952 15 15.25 13.5452 15.25 11.75C15.25 9.95482 13.7952 8.5 12 8.5Z" fill="#3F8AE0" />
</svg>
