<svg width="14" height="14" viewBox="0 0 14 14" fill="none" xmlns="http://www.w3.org/2000/svg">
	<path d="M2.20711 0.792893C1.81658 0.402369 1.18342 0.402369 0.792893 0.792893C0.402369 1.18342 0.402369 1.81658 0.792893 2.20711L5.58579 7L0.792893 11.7929C0.402369 12.1834 0.402369 12.8166 0.792893 13.2071C1.18342 13.5976 1.81658 13.5976 2.20711 13.2071L7 8.41421L11.7929 13.2071C12.1834 13.5976 12.8166 13.5976 13.2071 13.2071C13.5976 12.8166 13.5976 12.1834 13.2071 11.7929L8.41421 7L13.2071 2.20711C13.5976 1.81658 13.5976 1.18342 13.2071 0.792893C12.8166 0.402369 12.1834 0.402369 11.7929 0.792893L7 5.58579L2.20711 0.792893Z" fill="white" />
</svg>
