<svg width="21" height="18" viewBox="0 0 21 18" fill="none" xmlns="http://www.w3.org/2000/svg">
	<path d="M9.99655 0.725369C8.8808 0.804099 8.0001 1.73418 8.0001 2.86997L7.9991 4.98704L7.97867 4.99194C3.44638 5.93093 0.100098 9.94708 0.100098 14.6854C0.100098 15.0297 0.117705 15.3727 0.152531 15.713C0.235554 16.5242 1.2682 16.8157 1.76312 16.1676L1.94992 15.9312C3.40924 14.1447 5.48694 12.9728 7.78561 12.6658L7.9991 12.64L8.0001 15.1344C8.0001 15.615 8.1613 16.082 8.45793 16.4604C9.19042 17.395 10.5418 17.5588 11.4764 16.8263L19.3001 10.6942C19.4363 10.5874 19.5592 10.4646 19.6659 10.3283C20.3984 9.39378 20.2346 8.04237 19.3001 7.30987L11.4764 1.1778C11.0979 0.881169 10.631 0.719971 10.1501 0.719971L9.99655 0.725369ZM10.1501 2.51997C10.2284 2.51997 10.3044 2.54621 10.366 2.5945L18.1897 8.72657C18.3418 8.84582 18.3685 9.06581 18.2492 9.21795C18.2319 9.24013 18.2119 9.26013 18.1897 9.27751L10.366 15.4096C10.2139 15.5288 9.99387 15.5022 9.87463 15.35C9.82634 15.2884 9.8001 15.2124 9.8001 15.1341L9.7991 11.6868C9.79895 11.184 9.38698 10.7789 8.8843 10.7872L8.65116 10.791L8.30894 10.8075C6.03484 10.9527 3.9122 11.7947 2.19039 13.1734L2.0161 13.317L2.0399 13.1817C2.68271 9.76624 5.47482 7.07633 9.00826 6.64542C9.45974 6.59037 9.79918 6.20712 9.79931 5.75229L9.8001 2.87022C9.8001 2.67667 9.9568 2.51997 10.1501 2.51997Z" fill="#99A2AD" />
</svg>
